<svg width="177" height="144" viewBox="0 0 177 144" fill="none" xmlns="http://www.w3.org/2000/svg">
<path d="M20.67 68.48H4.77C1.9875 68.48 0 70.6662 0 73.25V120.95C0 123.733 1.9875 125.72 4.77 125.72H20.67C23.2538 125.72 25.44 123.733 25.44 120.95V73.25C25.44 70.6662 23.2538 68.48 20.67 68.48ZM12.72 117.77C9.9375 117.77 7.95 115.783 7.95 113C7.95 110.416 9.9375 108.23 12.72 108.23C15.3038 108.23 17.49 110.416 17.49 113C17.49 115.783 15.3038 117.77 12.72 117.77ZM76.32 40.2575C76.32 25.55 66.78 23.96 62.01 23.96C57.8363 23.96 56.0475 31.91 55.2525 35.4875C54.06 39.86 53.0663 44.2325 50.085 47.2137C43.725 53.7725 40.3463 61.9212 32.3963 69.6725C31.9988 70.2687 31.8 70.865 31.8 71.4612V113.994C31.8 115.186 32.7938 116.18 33.9863 116.379C37.1663 116.379 41.34 118.168 44.52 119.559C50.88 122.341 58.6313 125.72 68.1713 125.72H68.7675C77.3138 125.72 87.45 125.72 91.425 119.956C93.2138 117.571 93.6113 114.59 92.6175 111.012C95.9963 107.634 97.5863 101.274 95.9963 96.1062C99.375 91.535 99.7725 84.9762 97.785 80.405C100.17 78.02 101.76 74.2437 101.561 70.6662C101.561 64.505 96.3938 58.94 89.835 58.94H69.5625C71.1525 53.375 76.32 48.605 76.32 40.2575Z" fill="#8BC166"/>
<path d="M89 47.6638H136.877M136.877 47.6638L120 30.7867M136.877 47.6638L120 64.541" stroke="#F4CD31" stroke-width="6.83959" stroke-linecap="round" stroke-linejoin="round"/>
<path d="M117 17.959C117 19.0636 117.895 19.959 119 19.959C120.105 19.959 121 19.0636 121 17.959H117ZM121 76.6655C121 75.561 120.105 74.6655 119 74.6655C117.895 74.6655 117 75.561 117 76.6655H121ZM121 17.959V7.69966H117V17.959H121ZM124.7 4H168.872V0H124.7V4ZM172.572 7.69966V85.785H176.572V7.69966H172.572ZM168.872 89.4846H124.7V93.4846H168.872V89.4846ZM121 85.785V76.6655H117V85.785H121ZM124.7 89.4846C122.656 89.4846 121 87.8283 121 85.785H117C117 90.0374 120.447 93.4846 124.7 93.4846V89.4846ZM172.572 85.785C172.572 87.8282 170.915 89.4846 168.872 89.4846V93.4846C173.124 93.4846 176.572 90.0374 176.572 85.785H172.572ZM168.872 4C170.915 4 172.572 5.65639 172.572 7.69966H176.572C176.572 3.44725 173.124 0 168.872 0V4ZM121 7.69966C121 5.65639 122.656 4 124.7 4V0C120.447 0 117 3.44725 117 7.69966H121Z" fill="#E5E5E5"/>
</svg>
