<svg width="235" height="77" viewBox="0 0 235 77" fill="none" xmlns="http://www.w3.org/2000/svg">
<path d="M156 73C121.167 65.6667 60.5 50.6 96.5 49C132.5 47.4 113.167 41.6667 99 39L42 28" stroke="#E5E5E5" stroke-width="4" stroke-linecap="round"/>
<circle cx="89" cy="30" r="2" fill="#E5E5E5"/>
<circle cx="112" cy="56" r="2" fill="#E5E5E5"/>
<circle cx="73" cy="28" r="1" fill="#E5E5E5"/>
<circle cx="103" cy="34" r="1" fill="#E5E5E5"/>
<circle cx="56" cy="25" r="1" fill="#E5E5E5"/>
<circle cx="103" cy="44" r="1" fill="#E5E5E5"/>
<circle cx="124" cy="60" r="1" fill="#E5E5E5"/>
<circle cx="137" cy="63" r="1" fill="#E5E5E5"/>
<circle cx="98" cy="53" r="1" fill="#E5E5E5"/>
<path d="M154.258 67.0624C155.139 68.4322 157.193 68.4322 158.074 67.0624C172.359 46.516 175 44.3635 175 36.732C175 26.3609 166.586 17.9467 156.215 17.9467C145.746 17.9467 137.43 26.3609 137.43 36.732C137.43 44.3635 139.974 46.516 154.258 67.0624ZM156.215 44.5592C151.812 44.5592 148.388 41.1348 148.388 36.732C148.388 32.427 151.812 28.9048 156.215 28.9048C160.52 28.9048 164.042 32.427 164.042 36.732C164.042 41.1348 160.52 44.5592 156.215 44.5592Z" fill="#00A1CD"/>
<path d="M40.1987 23.26C40.5753 23.846 41.4542 23.846 41.8309 23.26C47.9414 14.471 49.0714 13.5502 49.0714 10.2857C49.0714 5.84933 45.4721 2.25 41.0357 2.25C36.5575 2.25 33 5.84933 33 10.2857C33 13.5502 34.0882 14.471 40.1987 23.26ZM41.0357 13.6339C39.1523 13.6339 37.6875 12.1691 37.6875 10.2857C37.6875 8.4442 39.1523 6.9375 41.0357 6.9375C42.8772 6.9375 44.3839 8.4442 44.3839 10.2857C44.3839 12.1691 42.8772 13.6339 41.0357 13.6339Z" fill="#00A1CD"/>
<path d="M12.7187 12.4861L5.01786 18.8477V25.6696C5.01786 26.0463 5.31083 26.3393 5.6875 26.3393H10.375C10.7098 26.3393 11.0028 26.0463 11.0028 25.6696V21.6518C11.0028 21.317 11.3376 20.9821 11.6724 20.9821H14.351C14.7277 20.9821 15.0206 21.317 15.0206 21.6518V25.6696C15.0206 26.0463 15.3555 26.3393 15.6903 26.3393H20.4196C20.7545 26.3393 21.0893 26.0463 21.0893 25.6696V18.8058L13.3465 12.4861C13.2628 12.4023 13.1373 12.3605 13.0536 12.3605C12.928 12.3605 12.8025 12.4023 12.7187 12.4861ZM24.8979 16.7969L21.4241 13.909V8.13337C21.4241 7.8404 21.173 7.63114 20.9219 7.63114H18.5781C18.2852 7.63114 18.0759 7.8404 18.0759 8.13337V11.1468L14.3092 8.04967C13.9743 7.79855 13.5139 7.63114 13.0536 7.63114C12.5513 7.63114 12.091 7.79855 11.7561 8.04967L1.16741 16.7969C1.04185 16.8806 0.958147 17.048 0.958147 17.1735C0.958147 17.2991 1.04185 17.4247 1.08371 17.5084L2.17187 18.8058C2.25558 18.9314 2.38114 18.9732 2.54855 18.9732C2.67411 18.9732 2.79967 18.9314 2.88337 18.8477L12.7187 10.7701C12.8025 10.6864 12.928 10.6445 13.0536 10.6445C13.1373 10.6445 13.2628 10.6864 13.3465 10.7701L23.1819 18.8477C23.2656 18.9314 23.3912 18.9732 23.5167 18.9732C23.6842 18.9732 23.8097 18.9314 23.8934 18.8058L24.9816 17.5084C25.0653 17.4247 25.1071 17.2991 25.1071 17.1735C25.1071 17.048 25.0234 16.8806 24.8979 16.7969Z" fill="#DE84C4"/>
<path d="M220.955 69.7857H219.214V30.0893C219.214 28.9576 218.257 28 217.125 28H187.875C186.656 28 185.786 28.9576 185.786 30.0893V69.7857H184.045C183.435 69.7857 183 70.308 183 70.8304V72.5714H222V70.8304C222 70.308 221.478 69.7857 220.955 69.7857ZM194.143 34.6161C194.143 34.0938 194.578 33.5714 195.187 33.5714H198.67C199.192 33.5714 199.714 34.0938 199.714 34.6161V38.0982C199.714 38.7076 199.192 39.1429 198.67 39.1429H195.187C194.578 39.1429 194.143 38.7076 194.143 38.0982V34.6161ZM194.143 42.9732C194.143 42.4509 194.578 41.9286 195.187 41.9286H198.67C199.192 41.9286 199.714 42.4509 199.714 42.9732V46.4554C199.714 47.0647 199.192 47.5 198.67 47.5H195.187C194.578 47.5 194.143 47.0647 194.143 46.4554V42.9732ZM198.67 55.8571H195.187C194.578 55.8571 194.143 55.4219 194.143 54.8125V51.3304C194.143 50.808 194.578 50.2857 195.187 50.2857H198.67C199.192 50.2857 199.714 50.808 199.714 51.3304V54.8125C199.714 55.4219 199.192 55.8571 198.67 55.8571ZM205.286 69.7857H199.714V62.4732C199.714 61.9509 200.15 61.4286 200.759 61.4286H204.241C204.763 61.4286 205.286 61.9509 205.286 62.4732V69.7857ZM210.857 54.8125C210.857 55.4219 210.335 55.8571 209.812 55.8571H206.33C205.721 55.8571 205.286 55.4219 205.286 54.8125V51.3304C205.286 50.808 205.721 50.2857 206.33 50.2857H209.812C210.335 50.2857 210.857 50.808 210.857 51.3304V54.8125ZM210.857 46.4554C210.857 47.0647 210.335 47.5 209.812 47.5H206.33C205.721 47.5 205.286 47.0647 205.286 46.4554V42.9732C205.286 42.4509 205.721 41.9286 206.33 41.9286H209.812C210.335 41.9286 210.857 42.4509 210.857 42.9732V46.4554ZM210.857 38.0982C210.857 38.7076 210.335 39.1429 209.812 39.1429H206.33C205.721 39.1429 205.286 38.7076 205.286 38.0982V34.6161C205.286 34.0938 205.721 33.5714 206.33 33.5714H209.812C210.335 33.5714 210.857 34.0938 210.857 34.6161V38.0982Z" fill="#F4CD31"/>
</svg>
