<svg width="96" height="117" viewBox="0 0 96 117" fill="none" xmlns="http://www.w3.org/2000/svg">
<path d="M35.9318 110.172C41.4945 110.172 45.9446 105.722 45.9446 100H25.7602C25.7602 105.722 30.2103 110.172 35.9318 110.172ZM70.1022 86.4908C67.0825 83.1532 61.202 78.2263 61.202 61.8563C61.202 49.6185 52.6197 39.7647 40.8587 37.2218V33.8843C40.8587 31.1824 38.6337 28.7984 35.9318 28.7984C33.0711 28.7984 30.846 31.1824 30.846 33.8843V37.2218C19.085 39.7647 10.5027 49.6185 10.5027 61.8563C10.5027 78.2263 4.62222 83.1532 1.60251 86.4908C0.648919 87.4444 0.172123 88.7158 0.331055 89.8283C0.331055 92.5302 2.23824 94.9142 5.41688 94.9142H66.2879C69.4665 94.9142 71.3737 92.5302 71.5326 89.8283C71.5326 88.7158 71.0558 87.4444 70.1022 86.4908Z" fill="#00A1CD"/>
<path d="M75 49C75 34.0883 62.9117 22 48 22" stroke="#E5E5E5" stroke-width="4" stroke-linecap="round"/>
<path d="M94 57C94 26.6243 69.3757 2 39 2" stroke="#E5E5E5" stroke-width="4" stroke-linecap="round"/>
</svg>
