<svg width="145" height="100" viewBox="0 0 145 100" fill="none" xmlns="http://www.w3.org/2000/svg">
<path d="M81.5625 20C69.0625 20 60.9375 25.1562 54.5312 34.375C53.4375 35.9375 53.75 38.2812 55.4688 39.375L62.1875 44.5312C63.75 45.7812 66.0938 45.4688 67.3438 43.9062C71.25 39.0625 74.2188 36.25 80.3125 36.25C85.1562 36.25 91.0938 39.2188 91.0938 43.9062C91.0938 47.5 88.125 49.2188 83.4375 51.875C77.8125 55 70.4688 58.9062 70.4688 68.5938V70C70.4688 72.1875 72.1875 73.75 74.2188 73.75H85.625C87.6562 73.75 89.375 72.1875 89.375 70V69.2188C89.375 62.5 108.906 62.1875 108.906 44.0625C108.906 30.4688 94.6875 20 81.5625 20ZM80 78.4375C73.9062 78.4375 69.0625 83.2812 69.0625 89.2188C69.0625 95.1562 73.9062 100 80 100C85.9375 100 90.7812 95.1562 90.7812 89.2188C90.7812 83.2812 85.9375 78.4375 80 78.4375Z" fill="#DB7758"/>
<path d="M131.136 58.0654C126.56 57.2695 123.257 58.6397 120.325 61.6064C119.825 62.1088 119.79 62.9866 120.35 63.4964L122.481 65.8117C122.973 66.3688 123.851 66.4036 124.408 65.9113C126.147 64.3869 127.413 63.5463 129.643 63.9343C131.416 64.2427 133.401 65.7075 133.102 67.4235C132.874 68.739 131.677 69.1791 129.792 69.853C127.534 70.6388 124.597 71.6012 123.98 75.1474L123.891 75.6622C123.752 76.4629 124.281 77.1443 125.025 77.2737L129.2 77.9999C129.944 78.1292 130.673 77.6667 130.812 76.866L130.862 76.58C131.289 74.1205 138.459 75.2497 139.613 68.6148C140.478 63.6387 135.94 58.9011 131.136 58.0654ZM126.843 79.3577C124.612 78.9697 122.531 80.4344 122.152 82.6079C121.774 84.7814 123.239 86.8629 125.47 87.2509C127.643 87.6289 129.725 86.1642 130.103 83.9907C130.481 81.8172 129.016 79.7357 126.843 79.3577Z" fill="#E5E5E5"/>
<path d="M128.255 2.11564C125.954 2.40296 124.576 3.5389 123.609 5.38316C123.444 5.69593 123.555 6.12019 123.897 6.28202L125.252 7.07676C125.568 7.27094 125.993 7.15954 126.187 6.84318C126.794 5.86175 127.276 5.27577 128.398 5.1357C129.29 5.02436 130.451 5.43438 130.559 6.29726C130.641 6.95881 130.134 7.34344 129.332 7.94015C128.369 8.64471 127.107 9.53258 127.329 11.3159L127.362 11.5747C127.412 11.9774 127.764 12.2255 128.138 12.1789L130.238 11.9167C130.612 11.87 130.892 11.5428 130.842 11.1402L130.824 10.9963C130.67 9.75955 134.258 9.25307 133.841 5.91659C133.529 3.41422 130.671 1.81395 128.255 2.11564ZM129.31 12.9088C128.188 13.0489 127.408 14.0519 127.545 15.1449C127.681 16.2379 128.684 17.0182 129.806 16.8781C130.899 16.7416 131.679 15.7386 131.543 14.6457C131.406 13.5527 130.403 12.7724 129.31 12.9088Z" fill="#E5E5E5"/>
<path d="M15.4373 37.3342C10.0406 39.0499 7.24041 42.3912 5.73991 47.2506C5.48215 48.0754 5.93877 49.0444 6.83095 49.2807L10.4394 50.5846C11.2856 50.9098 12.2546 50.4532 12.5798 49.6071C13.6015 46.9797 14.4972 45.3579 17.1281 44.5215C19.2193 43.8567 22.1903 44.3234 22.8336 46.3472C23.3269 47.8988 22.2811 49.0483 20.6219 50.8385C18.6223 52.9598 15.9878 55.6543 17.3175 59.8367L17.5105 60.4439C17.8108 61.3883 18.7673 61.827 19.6443 61.5482L24.5688 59.9826C25.4458 59.7038 25.9734 58.7933 25.6731 57.8489L25.5659 57.5116C24.6437 54.6108 33.0332 51.7951 30.5455 43.9698C28.6796 38.1008 21.1039 35.5327 15.4373 37.3342ZM22.7837 62.7785C20.1527 63.6149 18.7263 66.3709 19.5413 68.9344C20.3563 71.4979 23.1123 72.9243 25.7433 72.0879C28.3067 71.2729 29.7331 68.5168 28.9182 65.9534C28.1032 63.3899 25.3471 61.9635 22.7837 62.7785Z" fill="#E5E5E5"/>
</svg>
