<?xml version="1.0" encoding="iso-8859-1"?>
<svg version="1.1" id="Layer_1" xmlns="http://www.w3.org/2000/svg" xmlns:xlink="http://www.w3.org/1999/xlink" x="0px" y="0px"
	 viewBox="0 0 368.612 368.612" style="enable-background:new 0 0 368.612 368.612;" xml:space="preserve">
<g id="XMLID_895_">
	<path id="XMLID_33_" style="fill:#2B7B57;" d="M205.273,49.535h-91.3V23.636C113.973,10.582,124.555,0,137.609,0h44.027
		c13.054,0,23.636,10.582,23.636,23.636v25.899H205.273z"/>
	<path id="XMLID_32_" style="fill:#9FCBA5;" d="M237.628,326.902H92.893c-18.028,0-32.643-14.615-32.643-32.643V72.597
		c0-18.028,14.615-32.643,32.643-32.643h133.46c18.028,0,32.643,14.615,32.643,32.643v232.936
		C258.996,317.335,249.429,326.902,237.628,326.902z"/>
	<path id="XMLID_897_" style="fill:#2B7B57;" d="M60.25,152.071v142.187c0,18.028,14.615,32.643,32.643,32.643h133.46
		c18.028,0,32.643-14.615,32.643-32.643V152.071H60.25z"/>
	<g id="XMLID_898_">
		<path id="XMLID_15_" style="fill:#49B86E;" d="M282.7,323.878c-27.307,27.307-74.661,26.827-96.743,24.86
			c-7.167-0.639-12.831-6.302-13.47-13.47c-1.967-22.082-2.448-69.436,24.86-96.743s74.661-26.827,96.743-24.86
			c7.167,0.639,12.831,6.302,13.47,13.47C309.527,249.217,310.007,296.571,282.7,323.878z"/>
		<g id="XMLID_899_">
			<path id="XMLID_901_" style="fill:#2B7B57;" d="M156.274,364.95L156.274,364.95c-4.882-4.882-4.882-12.796,0-17.678
				l66.071-66.071c4.882-4.882,12.796-4.882,17.678,0l0,0c4.882,4.882,4.882,12.796,0,17.678l-66.071,66.071
				C169.07,369.832,161.156,369.832,156.274,364.95z"/>
		</g>
	</g>
</g>
<g>
</g>
<g>
</g>
<g>
</g>
<g>
</g>
<g>
</g>
<g>
</g>
<g>
</g>
<g>
</g>
<g>
</g>
<g>
</g>
<g>
</g>
<g>
</g>
<g>
</g>
<g>
</g>
<g>
</g>
</svg>
