<svg width="211" height="206" viewBox="0 0 211 206" fill="none" xmlns="http://www.w3.org/2000/svg">
<path d="M106.566 20.545L107.206 20.7032L110.812 6.1083C110.915 5.69222 111.354 5.42713 111.77 5.52994L122.524 8.18703C122.973 8.29775 123.206 8.7289 123.103 9.14498L119.497 23.7398L120.137 23.898C120.361 23.9534 120.474 24.1849 120.426 24.377L120.268 25.0171L105.929 21.4743L106.087 20.8342C106.135 20.6421 106.374 20.4975 106.566 20.545ZM119.619 10.0501C119.666 9.8581 119.554 9.62652 119.33 9.57116L118.05 9.25484C117.858 9.20739 117.618 9.35198 117.571 9.54402L117.254 10.8243C117.199 11.0483 117.351 11.2558 117.543 11.3032L118.824 11.6196C119.048 11.6749 119.247 11.5544 119.303 11.3304L119.619 10.0501ZM118.86 13.1227C118.907 12.9307 118.795 12.6991 118.571 12.6438L117.29 12.3274C117.098 12.28 116.859 12.4246 116.811 12.6166L116.495 13.8969C116.44 14.1209 116.592 14.3284 116.784 14.3758L118.065 14.6922C118.289 14.7475 118.488 14.627 118.544 14.403L118.86 13.1227ZM116.025 17.4484L117.305 17.7648C117.529 17.8201 117.729 17.6996 117.784 17.4756L118.101 16.1953C118.148 16.0033 118.036 15.7717 117.812 15.7164L116.531 15.4C116.339 15.3526 116.1 15.4972 116.052 15.6892L115.736 16.9695C115.681 17.1935 115.833 17.401 116.025 17.4484ZM112.327 21.9684L114.376 22.4746L115.04 19.786C115.088 19.594 114.975 19.3624 114.751 19.3071L113.471 18.9907C113.279 18.9433 113.039 19.0879 112.992 19.2799L112.327 21.9684ZM111.639 15.9572C111.584 16.1813 111.736 16.3888 111.928 16.4362L113.209 16.7525C113.433 16.8079 113.632 16.6874 113.688 16.4634L114.004 15.1831C114.051 14.9911 113.939 14.7595 113.715 14.7041L112.434 14.3878C112.242 14.3404 112.003 14.485 111.955 14.677L111.639 15.9572ZM112.398 12.8846C112.343 13.1087 112.495 13.3162 112.688 13.3636L113.968 13.6799C114.192 13.7353 114.391 13.6148 114.447 13.3908L114.763 12.1105C114.811 11.9185 114.698 11.6869 114.474 11.6315L113.194 11.3152C113.002 11.2678 112.762 11.4124 112.715 11.6044L112.398 12.8846ZM113.158 9.81204C113.102 10.0361 113.255 10.2436 113.447 10.291L114.727 10.6073C114.951 10.6627 115.151 10.5422 115.206 10.3182L115.522 9.03791C115.57 8.84587 115.457 8.61429 115.233 8.55894L113.953 8.24261C113.761 8.19517 113.521 8.33976 113.474 8.53179L113.158 9.81204Z" fill="#DE84C4"/>
<path d="M49.6379 35.0368C48.6066 35.0368 47.7339 34.2038 47.7339 33.1328C47.7339 32.1014 48.6066 31.2287 49.6379 31.2287C50.709 31.2287 51.542 32.1014 51.542 33.1328C51.542 34.2038 50.709 35.0368 49.6379 35.0368ZM45.9091 40.987L46.8215 40.511L47.2182 39.321C47.8132 37.5756 49.4396 36.3459 51.2643 36.3062C52.6924 36.3062 53.4857 36.7425 54.9534 37.3376C55.8261 37.6549 56.5401 38.3293 56.9368 39.1623L57.2145 39.678C57.5318 40.3127 57.2542 41.0663 56.6591 41.3837C56.0245 41.701 55.2708 41.463 54.9534 40.8283L54.6757 40.273C54.5567 39.9953 54.3187 39.797 54.0411 39.678L52.97 39.2416L53.565 41.6614C53.8031 42.4944 53.565 43.3671 52.97 44.0018L50.6296 46.5802C50.3123 46.8975 50.1139 47.2942 50.0346 47.6909L49.2809 50.5867C49.1222 51.261 48.4479 51.6974 47.7735 51.499C47.0595 51.3403 46.6628 50.666 46.8215 49.9916L47.6942 46.4612C47.8132 46.0248 48.0115 45.6678 48.2892 45.3505L50.1139 43.3671L49.4396 40.6697L49.2016 41.3044C49.0032 41.939 48.5272 42.4547 47.9322 42.7721L47.0198 43.2481C46.4248 43.5654 45.6711 43.2878 45.3538 42.6927C45.0364 42.058 45.2744 41.2647 45.9091 40.987ZM54.9931 46.5405C55.1121 46.8579 55.3104 47.1752 55.5484 47.4132L57.5318 49.3966C58.0475 49.8726 58.0475 50.7057 57.5318 51.1817C57.0558 51.6974 56.2228 51.6974 55.7468 51.1817L53.3667 48.8413C53.1287 48.6033 52.97 48.2859 52.8114 47.9686L52.2957 46.6199C54.4774 44.2398 53.8031 44.9935 54.1601 44.5175L54.9931 46.5405Z" fill="#DB7758"/>
<path d="M86.5333 78.8196C85.8216 79.3807 84.7404 79.008 84.5255 78.1276C80.7354 64.726 79.7358 63.1144 81.1198 59.0988C83.0006 53.6418 88.9539 50.7404 94.4109 52.6212C99.9194 54.5198 102.769 60.4553 100.889 65.9123C99.5046 69.9279 97.7757 70.5991 86.5333 78.8196ZM89.5847 66.6241C91.9013 67.4225 94.3242 66.2417 95.1227 63.9251C95.9034 61.6599 94.7403 59.1856 92.4237 58.3871C90.1585 57.6064 87.6664 58.8209 86.8857 61.0861C86.0872 63.4028 87.3195 65.8434 89.5847 66.6241Z" fill="#5590D1"/>
<path d="M33.8335 76.9919L50.9504 78.5887L57.5549 88.2961C57.9196 88.8321 57.7864 89.5326 57.2504 89.8973L50.5803 94.4354C50.1038 94.7595 49.4033 94.6263 49.0387 94.0903L45.1488 88.3731C44.8247 87.8966 44.0241 87.7444 43.5477 88.0685L39.7362 90.6617C39.2002 91.0264 39.1075 91.7864 39.4316 92.2629L43.3214 97.9801C43.6861 98.5161 43.4933 99.2571 43.0169 99.5813L36.2872 104.16C35.8108 104.484 35.0507 104.391 34.686 103.855L28.041 94.0884L32.9402 77.5997C32.9782 77.3996 33.1164 77.2185 33.2355 77.1374C33.4142 77.0159 33.6333 76.9539 33.8335 76.9919ZM20.6766 94.917L22.8238 87.4447L17.2322 79.2262C16.9486 78.8093 17.1033 78.2684 17.4606 78.0253L20.7957 75.7563C21.2126 75.4726 21.7129 75.5678 21.9966 75.9847L24.9139 80.2726L27.2754 72.2189C27.5087 71.5374 28.0018 70.8535 28.6569 70.4078C29.3715 69.9216 30.1887 69.7141 30.9082 69.7472L54.4439 71.9428C54.7036 71.9404 54.9848 72.0976 55.1064 72.2762C55.2279 72.4549 55.2304 72.7146 55.2519 72.8742L54.9595 75.7739C54.962 76.0336 54.8238 76.2147 54.5856 76.3768C54.407 76.4983 54.1878 76.5603 53.9876 76.5223L32.1722 74.5502C31.9721 74.5121 31.7529 74.5741 31.5742 74.6957C31.4551 74.7767 31.317 74.9578 31.2789 75.158L25.1038 96.1739C25.0657 96.3741 24.9275 96.5552 24.7489 96.6767C24.5107 96.8388 24.2915 96.9008 24.0508 96.8032L21.2463 96.0105C21.0462 95.9724 20.8651 95.8343 20.7435 95.6556C20.6219 95.4769 20.579 95.1577 20.6766 94.917Z" fill="#AFCB05"/>
<path fill-rule="evenodd" clip-rule="evenodd" d="M112.874 152.629C119.521 147.653 128.349 139.872 137.57 130.651C146.052 122.169 153.316 114.02 158.299 107.595C156.489 105.445 153.143 105.174 151.014 107.221L111.989 144.742C109.605 147.034 110.072 150.947 112.874 152.629Z" fill="#CCAD2F"/>
<path fill-rule="evenodd" clip-rule="evenodd" d="M158.312 107.582C158.522 107.838 158.712 108.12 158.875 108.426L202.857 191.189C205.184 195.568 200.403 200.299 196.049 197.926L113.042 152.684C112.994 152.658 112.948 152.632 112.902 152.605C119.547 147.629 128.371 139.85 137.586 130.634C146.066 122.154 153.329 114.007 158.312 107.582Z" fill="#F4CD31"/>
<path d="M133.838 107.242C124.722 97.447 111.569 70.0621 131.881 38.8791" stroke="#DB7758" stroke-width="8" stroke-linecap="round"/>
<path d="M106.889 131.566C98.4145 124.173 57.0001 110 34.3572 143.457" stroke="#5590D1" stroke-width="8" stroke-linecap="round"/>
<rect width="10" height="10" rx="1" transform="matrix(-0.861564 -0.507649 -0.507649 0.861564 82.7349 99.2305)" fill="#DB7758"/>
<rect width="13.3313" height="13.3313" rx="2" transform="matrix(-0.910627 0.413229 0.413229 0.910627 20.3799 34.9999)" fill="#DE84C4"/>
<rect width="5.86813" height="5.86813" rx="1" transform="matrix(-0.905531 0.424281 0.424281 0.905531 107.326 89.0677)" fill="#AFCB05"/>
<rect width="5.86813" height="5.86813" rx="1" transform="matrix(-0.899184 -0.43757 -0.43757 0.899184 155.909 32.5473)" fill="#AFCB05"/>
<path d="M15.3399 109.927C15.0405 109.006 13.7371 109.006 13.4377 109.927L13.154 110.8C13.0201 111.212 12.6361 111.491 12.2029 111.491H11.2846C10.3159 111.491 9.91311 112.731 10.6968 113.3L11.4397 113.84C11.7902 114.095 11.9369 114.546 11.803 114.958L11.5192 115.832C11.2199 116.753 12.2744 117.519 13.0581 116.95L13.801 116.41C14.1515 116.155 14.6261 116.155 14.9766 116.41L15.7195 116.95C16.5032 117.519 17.5577 116.753 17.2583 115.832L16.9746 114.958C16.8407 114.546 16.9874 114.095 17.3378 113.84L18.0808 113.3C18.8645 112.731 18.4617 111.491 17.493 111.491H16.5747C16.1415 111.491 15.7575 111.212 15.6236 110.8L15.3399 109.927Z" fill="#5590D1"/>
<path d="M82.3399 15.927C82.0406 15.0057 80.7372 15.0057 80.4378 15.927L78.3579 22.3282C78.224 22.7402 77.8401 23.0192 77.4069 23.0192L70.6762 23.0192C69.7075 23.0192 69.3047 24.2588 70.0884 24.8282L75.5336 28.7844C75.8841 29.039 76.0308 29.4904 75.8969 29.9024L73.817 36.3036C73.5177 37.2249 74.5722 37.9911 75.3559 37.4217L80.8011 33.4655C81.1516 33.2109 81.6262 33.2109 81.9766 33.4655L87.4218 37.4217C88.2056 37.9911 89.26 37.2249 88.9607 36.3036L86.8808 29.9024C86.7469 29.4904 86.8936 29.039 87.2441 28.7844L92.6893 24.8282C93.473 24.2588 93.0702 23.0192 92.1015 23.0192L85.3708 23.0192C84.9376 23.0192 84.5537 22.7402 84.4198 22.3282L82.3399 15.927Z" fill="#AFCB05"/>
<path d="M163.049 56.0647L165.65 61.8375C165.772 62.0788 165.815 62.3531 165.772 62.6221C165.73 62.8911 165.603 63.1415 165.41 63.3386C165.218 63.5357 164.968 63.6696 164.697 63.7217C164.426 63.7738 164.147 63.7415 163.898 63.6294L161.589 62.7643L158.914 69.6095C158.739 70.0362 158.403 70.3815 157.979 70.5728C157.554 70.7641 157.073 70.7864 156.637 70.6349L151.385 68.689L150.101 71.9747C150.007 72.1859 149.838 72.3562 149.625 72.452C149.412 72.5478 149.172 72.5621 148.952 72.4921L147.348 71.8859C147.241 71.848 147.142 71.789 147.059 71.7126C146.975 71.6361 146.908 71.5437 146.862 71.4408C146.815 71.3378 146.791 71.2264 146.789 71.1132C146.787 70.9999 146.808 70.8871 146.851 70.7814L148.743 65.8928C148.825 65.6778 148.949 65.4804 149.109 65.3121C149.268 65.1438 149.459 65.0079 149.671 64.9125C149.883 64.817 150.111 64.7639 150.343 64.7562C150.575 64.7484 150.805 64.7863 151.02 64.8674L156.294 66.8038L158.317 61.5806L156.008 60.7154C155.736 60.6522 155.493 60.5037 155.316 60.292C155.139 60.0804 155.036 59.8169 155.024 59.5407C155.012 59.2645 155.09 58.9905 155.248 58.7593C155.406 58.5281 155.634 58.3521 155.899 58.2576L161.792 55.6031C161.905 55.541 162.03 55.5036 162.158 55.4935C162.286 55.4835 162.414 55.501 162.534 55.5449C162.653 55.5889 162.761 55.6581 162.85 55.7478C162.939 55.8376 163.007 55.9458 163.049 56.0647Z" fill="#5590D1"/>
</svg>
